<?xml version="1.0" encoding="UTF-8"?>
<svg width="900px" height="900px" viewBox="0 0 900 900" version="1.1" xmlns="http://www.w3.org/2000/svg" xmlns:xlink="http://www.w3.org/1999/xlink">
    <!-- Generator: Sketch 46.2 (44496) - http://www.bohemiancoding.com/sketch -->
    <title>Group 2</title>
    <desc>Created with Sketch.</desc>
    <defs>
        <rect id="path-1" x="0" y="0" width="67.0337739" height="67.8306092" rx="33.5168869"></rect>
    </defs>
    <g id="Page-1" stroke="none" stroke-width="1" fill="none" fill-rule="evenodd">
        <g id="Group-2">
            <rect id="Rectangle-4" fill="#FAFAFA" fill-rule="nonzero" x="0" y="0" width="900" height="900"></rect>
            <g id="Group" transform="translate(175.000000, 175.000000)">
                <path d="M121.509764,426.376902 C50.1591227,425.592506 0.00126997981,388.388334 0.00126997981,319.290741 C0.00126997981,277.164805 26.0517309,258.46467 44.9109312,258.46467 C55.4073143,258.46467 67.2689258,264.370145 67.2689258,275.393484 C57.5472303,275.001286 45.104603,279.723737 44.9109312,296.456452 C44.7172592,318.110932 62.9890937,341.928931 93.5130587,341.928931 C105.762014,341.928931 115.093191,339.765412 125.592749,333.072326 C130.84094,346.259184 132.590337,359.449257 132.590337,372.636115 C132.590337,395.081421 128.704199,412.993945 121.509764,426.376902 Z M455.513502,341.928931 C486.037467,341.928931 504.312476,318.110932 504.118805,296.456452 C503.921957,279.723737 491.47933,275.001286 481.760809,275.393484 C481.760809,264.370145 493.619246,258.46467 504.118805,258.46467 C522.974829,258.46467 550,276.573293 550,317.323321 C550,388.189021 500.813682,426.376902 427.516797,426.376902 C420.325536,412.993945 416.436223,395.081421 416.436223,372.636115 C416.436223,359.449257 418.185621,346.259184 423.433812,333.072326 C433.93337,339.765412 443.461393,341.928931 455.513502,341.928931 Z M528.613223,443.109938 C542.998919,443.309252 549.028148,456.103912 549.028148,471.849702 C549.028148,506.298842 520.640924,550 451.820718,550 C337.116141,550 326.032393,445.276672 274.512487,445.276672 C222.992581,445.276672 211.912007,550 97.2074297,550 C28.3840488,550 0,506.298842 0,471.849702 C0,456.103912 6.21972613,443.309252 20.4149255,443.109938 C20.4149255,454.920888 30.133446,486.418898 69.9885875,486.418898 C119.759097,486.418898 148.143145,434.645531 148.143145,372.636436 C148.143145,308.267723 100.125209,279.33186 100.125209,176.572738 C100.125209,78.9346941 178.276591,0 274.512487,0 C370.942053,0 448.90294,78.9346941 448.90294,176.572738 C448.90294,279.33186 400.885003,308.267723 400.885003,372.636436 C400.885003,434.645531 429.265877,486.418898 479.036386,486.418898 C518.891527,486.418898 528.613223,454.920888 528.613223,443.109938 Z" id="Combined-Shape" fill-opacity="0.5" fill="#CCCCCC" fill-rule="nonzero"></path>
                <g id="Group-2" transform="translate(183.737151, 74.368499)">
                    <path d="M182.525698,92.756315 C182.525698,143.986261 141.666511,185.51263 91.2596489,185.51263 C40.8591866,185.51263 0,143.986261 0,92.756315 C0,41.5328725 40.8591866,0 91.2596489,0 C141.666511,0 182.525698,41.5328725 182.525698,92.756315" id="Fill-18" fill="#FFFFFF" fill-rule="nonzero"></path>
                    <g id="Rectangle-2" transform="translate(84.801762, 35.958395)" fill-rule="nonzero" fill="#CCCCCC">
                        <rect id="path-2" x="0" y="0" width="67.0337739" height="67.8306092" rx="33.5168869"></rect>
                    </g>
                    <g id="Rectangle-3-Clipped" transform="translate(84.801762, 35.958395)">
                        <mask id="mask-2" fill="white">
                            <use xlink:href="#path-1"></use>
                        </mask>
                        <g id="path-2"></g>
                        <rect id="Rectangle-3" fill="#FFFFFF" fill-rule="nonzero" mask="url(#mask-2)" transform="translate(51.688693, 16.753343) rotate(-45.000000) translate(-51.688693, -16.753343) " x="33.113069" y="5.72065379" width="37.1512482" height="22.0653789" rx="11.0326895"></rect>
                    </g>
                </g>
            </g>
        </g>
    </g>
</svg>