<?xml version="1.0" encoding="UTF-8"?>
<svg width="681px" height="673px" viewBox="0 0 681 673" version="1.1" xmlns="http://www.w3.org/2000/svg" xmlns:xlink="http://www.w3.org/1999/xlink">
    <!-- Generator: Sketch 46.2 (44496) - http://www.bohemiancoding.com/sketch -->
    <title>Group</title>
    <desc>Created with Sketch.</desc>
    <defs>
        <rect id="path-1" x="0" y="0" width="83" height="83" rx="41.5"></rect>
    </defs>
    <g id="Page-1" stroke="none" stroke-width="1" fill="none" fill-rule="evenodd">
        <g id="store-copy-2@2x" transform="translate(-226.000000, -82.000000)">
            <g id="Group" transform="translate(226.000000, 82.000000)">
                <path d="M150.45118,521.730282 C62.1061137,520.770466 0.00157246591,475.246089 0.00157246591,390.695761 C0.00157246591,339.148934 32.2567795,316.266769 55.6078984,316.266769 C68.6043291,316.266769 83.2911608,323.492923 83.2911608,336.981481 C71.2539342,336.501573 55.8476994,342.280136 55.6078984,362.754895 C55.3680973,389.252104 77.9919506,418.396674 115.786169,418.396674 C130.952603,418.396674 142.506296,415.749313 155.506658,407.55941 C162.004873,423.695329 164.170945,439.835182 164.170945,455.971101 C164.170945,483.435993 159.359199,505.354409 150.45118,521.730282 Z M564.008536,418.396674 C601.802754,418.396674 624.430539,389.252104 624.190738,362.754895 C623.947005,342.280136 608.540771,336.501573 596.507475,336.981481 C596.507475,323.492923 611.190376,316.266769 624.190738,316.266769 C647.537925,316.266769 681,338.425139 681,388.288354 C681,475.002202 620.098395,521.730282 529.343525,521.730282 C520.439437,505.354409 515.62376,483.435993 515.62376,455.971101 C515.62376,439.835182 517.789832,423.695329 524.288047,407.55941 C537.288409,415.749313 549.085834,418.396674 564.008536,418.396674 Z M654.519281,542.205433 C672.331389,542.449321 679.79667,558.105332 679.79667,577.372454 C679.79667,619.525674 644.648126,673 559.436198,673 C417.411077,673 403.687381,544.856728 339.89637,544.856728 C276.105359,544.856728 262.385594,673 120.360472,673 C35.1446132,673 0,619.525674 0,577.372454 C0,558.105332 7.70115181,542.449321 25.2773896,542.205433 C25.2773896,556.657741 37.310685,595.199852 86.6585965,595.199852 C148.283536,595.199852 183.428149,531.848077 183.428149,455.971494 C183.428149,377.207596 123.973213,341.800622 123.973213,216.060823 C123.973213,96.587362 220.738834,0 339.89637,0 C459.293706,0 555.823458,96.587362 555.823458,216.060823 C555.823458,341.800622 496.368522,377.207596 496.368522,455.971494 C496.368522,531.848077 531.509204,595.199852 593.134143,595.199852 C642.482054,595.199852 654.519281,556.657741 654.519281,542.205433 Z" id="Combined-Shape" fill-opacity="0.400000006" fill="#FFFFFF" fill-rule="nonzero"></path>
                <g id="Group-2" transform="translate(227.500000, 91.000000)">
                    <path d="M226,113.5 C226,176.186825 175.408898,227 112.996038,227 C50.5911019,227 0,176.186825 0,113.5 C0,50.8211331 50.5911019,0 112.996038,0 C175.408898,0 226,50.8211331 226,113.5" id="Fill-18" fill="#FFFFFF" fill-rule="nonzero"></path>
                    <g id="Rectangle-2" transform="translate(105.000000, 44.000000)" fill-rule="nonzero" fill="#333333">
                        <rect id="path-2" x="0" y="0" width="83" height="83" rx="41.5"></rect>
                    </g>
                    <g id="Rectangle-3-Clipped" transform="translate(105.000000, 44.000000)">
                        <mask id="mask-2" fill="white">
                            <use xlink:href="#path-1"></use>
                        </mask>
                        <g id="path-2"></g>
                        <rect id="Rectangle-3" fill="#FFFFFF" fill-rule="nonzero" mask="url(#mask-2)" transform="translate(64.000000, 20.500000) rotate(-45.000000) translate(-64.000000, -20.500000) " x="41" y="7" width="46" height="27" rx="13.5"></rect>
                    </g>
                </g>
            </g>
        </g>
    </g>
</svg>